# xmcd
#
# Track frame offsets: 
#        150
#        19566
#        37720
#        55884
#        70389
#        92157
#        115096
#        137609
#        152997
#        169657
#        189264
#        203630
#        220591
#        237862
#
# Disc length: 3436 seconds
#
# Revision: 0
# Processed by: cddbd v1.5.2PL0 Copyright (c) Steve Scherf et al.
# Submitted via: ExactAudioCopy v0.99pb4
#
DISCID=b00d6a0e
DTITLE=Esther og Solveig - Jeg har det skriftlig
DYEAR=2002
DGENRE=Gospel
TTITLE0=Jeg har det skriftlig
TTITLE1=Alt er vel med min sjel
TTITLE2=Han giver meg kraft
TTITLE3=Jeg ser deg, o, Guds Lam 
TTITLE4=Jeg på vandring er
TTITLE5=Englene forkynner fred
TTITLE6=Har du mot å følge Jesus
TTITLE7=Golgata skjuler det alt
TTITLE8=Tak meg, min Jesus, åleine med deg
TTITLE9=Han kommer snart
TTITLE10=Opp, i kristne, se signalet
TTITLE11=Skal det bli lyst
TTITLE12=Jeg er så fremmed her i verden
TTITLE13=Jeg vet at det finnes en himmel
EXTD=
EXTT0=
EXTT1=
EXTT2=
EXTT3=
EXTT4=
EXTT5=
EXTT6=
EXTT7=
EXTT8=
EXTT9=
EXTT10=
EXTT11=
EXTT12=
EXTT13=
PLAYORDER=
